<?xml version="1.0" encoding="UTF-8"?> <svg xmlns="http://www.w3.org/2000/svg" id="logo" x="0px" y="0px" viewBox="0 0 78 79.8" style="enable-background:new 0 0 78 79.8;"><style type="text/css"> .st1{fill:#fc781f;} </style><path class="st1" d="M23.6,76C14.7,76,5.3,69.7,5.3,58c0-5.5,2.5-10.6,6.8-14c4.4-3.5,10.1-4.9,15.7-3.6c1.6,0.4,2.6,2,2.3,3.6 c-0.4,1.6-2,2.6-3.6,2.3c-3.8-0.8-7.6,0.1-10.6,2.5c-2.9,2.3-4.5,5.7-4.5,9.3c0,5.8,3.9,12.1,12.4,12.1c5.7,0,12.4-3.5,12.4-13.5 V23.4c0-7.6,3.1-12.2,5.8-14.7c3.3-3.1,7.8-4.9,12.7-4.9c8.9,0,18.4,6.3,18.4,18.1c0,5.5-2.5,10.6-6.8,14 c-4.4,3.5-10.1,4.9-15.7,3.6c-1.6-0.4-2.6-2-2.3-3.6c0.4-1.6,2-2.6,3.6-2.3c3.8,0.8,7.6-0.1,10.6-2.5c2.9-2.3,4.5-5.7,4.5-9.3 c0-5.8-3.9-12.1-12.4-12.1c-5.7,0-12.4,3.5-12.4,13.5v33.1C42.1,69.9,32.5,76,23.6,76z"></path></svg> 